<mxfile host="app.diagrams.net" modified="2022-08-05T01:25:27.465Z" agent="5.0 (Windows NT 10.0; Win64; x64) AppleWebKit/537.36 (KHTML, like Gecko) Chrome/104.0.0.0 Safari/537.36" etag="jNrj6Ok76qXthU8lPMnO" version="20.2.2" type="github">
  <diagram name="Page-1" id="c4acf3e9-155e-7222-9cf6-157b1a14988f">
    <mxGraphModel dx="1123" dy="3266" grid="1" gridSize="10" guides="1" tooltips="1" connect="1" arrows="1" fold="1" page="1" pageScale="1" pageWidth="850" pageHeight="1100" background="#F1FAEE" math="0" shadow="1">
      <root>
        <mxCell id="0" />
        <mxCell id="1" parent="0" />
        <mxCell id="QppL3apP4pxPCaE8zfrQ-3" value="&lt;font face=&quot;Lucida Console&quot;&gt;Book&lt;/font&gt;" style="html=1;overflow=block;blockSpacing=1;swimlane;childLayout=stackLayout;horizontal=1;horizontalStack=0;resizeParent=1;resizeParentMax=0;resizeLast=0;collapsible=0;fontStyle=0;marginBottom=0;swimlaneFillColor=#ffffff;startSize=25;whiteSpace=wrap;fontSize=16.7;fontColor=#1D3557;align=center;spacing=0;strokeColor=#457B9D;strokeOpacity=100;rounded=1;absoluteArcSize=1;arcSize=9;strokeWidth=0.8;fillColor=#A8DADC;" parent="1" vertex="1">
          <mxGeometry x="55" y="-2093.25" width="300" height="227.25" as="geometry" />
        </mxCell>
        <mxCell id="QppL3apP4pxPCaE8zfrQ-4" value="&lt;font style=&quot;font-size: 14px;&quot; face=&quot;Lucida Console&quot;&gt;# title: String&lt;br&gt;# author: String&lt;/font&gt;" style="part=1;html=1;resizeHeight=0;strokeColor=none;fillColor=none;align=left;verticalAlign=middle;spacingLeft=4;spacingRight=4;overflow=hidden;rotatable=0;points=[[0,0.5],[1,0.5]];portConstraint=eastwest;swimlaneFillColor=#ffffff;strokeOpacity=100;whiteSpace=wrap;fontSize=16.7;fontColor=#1D3557;rounded=1;" parent="QppL3apP4pxPCaE8zfrQ-3" vertex="1">
          <mxGeometry y="25" width="300" height="92" as="geometry" />
        </mxCell>
        <mxCell id="QppL3apP4pxPCaE8zfrQ-5" value="" style="line;strokeWidth=1;fillColor=none;align=left;verticalAlign=middle;spacingTop=-1;spacingLeft=3;spacingRight=3;rotatable=0;labelPosition=right;points=[];portConstraint=eastwest;rounded=1;labelBackgroundColor=#F1FAEE;strokeColor=#457B9D;fontColor=#1D3557;" parent="QppL3apP4pxPCaE8zfrQ-3" vertex="1">
          <mxGeometry y="117" width="300" height="8" as="geometry" />
        </mxCell>
        <mxCell id="QppL3apP4pxPCaE8zfrQ-6" value="&lt;font style=&quot;font-size: 14px;&quot; face=&quot;Lucida Console&quot;&gt;+ toString():String&lt;br&gt;+ setBookInfo(String):void&lt;/font&gt;" style="part=1;html=1;resizeHeight=0;strokeColor=none;fillColor=none;align=left;verticalAlign=middle;spacingLeft=4;spacingRight=4;overflow=hidden;rotatable=0;points=[[0,0.5],[1,0.5]];portConstraint=eastwest;swimlaneFillColor=#ffffff;strokeOpacity=100;whiteSpace=wrap;fontSize=16.7;fontColor=#1D3557;rounded=1;" parent="QppL3apP4pxPCaE8zfrQ-3" vertex="1">
          <mxGeometry y="125" width="300" height="102.25" as="geometry" />
        </mxCell>
        <mxCell id="QppL3apP4pxPCaE8zfrQ-7" value="&lt;font face=&quot;Lucida Console&quot;&gt;LibraryBook&lt;/font&gt;" style="html=1;overflow=block;blockSpacing=1;swimlane;childLayout=stackLayout;horizontal=1;horizontalStack=0;resizeParent=1;resizeParentMax=0;resizeLast=0;collapsible=0;fontStyle=0;marginBottom=0;swimlaneFillColor=#ffffff;startSize=25;whiteSpace=wrap;fontSize=16.7;fontColor=#1D3557;align=center;spacing=0;strokeColor=#457B9D;strokeOpacity=100;rounded=1;absoluteArcSize=1;arcSize=9;strokeWidth=0.8;fillColor=#A8DADC;" parent="1" vertex="1">
          <mxGeometry x="50" y="-1760" width="270" height="187.25" as="geometry" />
        </mxCell>
        <mxCell id="QppL3apP4pxPCaE8zfrQ-8" value="&lt;font style=&quot;font-size: 14px;&quot; face=&quot;Lucida Console&quot;&gt;- isbn: String&lt;br&gt;- subjectList: String&lt;/font&gt;" style="part=1;html=1;resizeHeight=0;strokeColor=none;fillColor=none;align=left;verticalAlign=middle;spacingLeft=4;spacingRight=4;overflow=hidden;rotatable=0;points=[[0,0.5],[1,0.5]];portConstraint=eastwest;swimlaneFillColor=#ffffff;strokeOpacity=100;whiteSpace=wrap;fontSize=16.7;fontColor=#1D3557;rounded=1;" parent="QppL3apP4pxPCaE8zfrQ-7" vertex="1">
          <mxGeometry y="25" width="270" height="72" as="geometry" />
        </mxCell>
        <mxCell id="QppL3apP4pxPCaE8zfrQ-9" value="" style="line;strokeWidth=1;fillColor=none;align=left;verticalAlign=middle;spacingTop=-1;spacingLeft=3;spacingRight=3;rotatable=0;labelPosition=right;points=[];portConstraint=eastwest;rounded=1;labelBackgroundColor=#F1FAEE;strokeColor=#457B9D;fontColor=#1D3557;" parent="QppL3apP4pxPCaE8zfrQ-7" vertex="1">
          <mxGeometry y="97" width="270" height="8" as="geometry" />
        </mxCell>
        <mxCell id="QppL3apP4pxPCaE8zfrQ-10" value="" style="part=1;html=1;resizeHeight=0;strokeColor=none;fillColor=none;align=left;verticalAlign=middle;spacingLeft=4;spacingRight=4;overflow=hidden;rotatable=0;points=[[0,0.5],[1,0.5]];portConstraint=eastwest;swimlaneFillColor=#ffffff;strokeOpacity=100;whiteSpace=wrap;fontSize=13;rounded=1;fontColor=#1D3557;" parent="QppL3apP4pxPCaE8zfrQ-7" vertex="1">
          <mxGeometry y="105" width="270" height="82.25" as="geometry" />
        </mxCell>
        <UserObject label="" lucidchartObjectId="C07CwJL21Ke9" id="QppL3apP4pxPCaE8zfrQ-11">
          <mxCell style="html=1;jettySize=18;whiteSpace=wrap;fontSize=13;strokeColor=#457B9D;strokeOpacity=100;strokeWidth=0.8;rounded=1;arcSize=12;edgeStyle=orthogonalEdgeStyle;startArrow=none;endArrow=block;endFill=0;endSize=12;exitX=0.5;exitY=-0.002;exitPerimeter=0;entryX=0.5;entryY=1.002;entryPerimeter=0;labelBackgroundColor=#F1FAEE;fontColor=#1D3557;" parent="1" source="QppL3apP4pxPCaE8zfrQ-7" target="QppL3apP4pxPCaE8zfrQ-3" edge="1">
            <mxGeometry width="100" height="100" relative="1" as="geometry">
              <Array as="points" />
            </mxGeometry>
          </mxCell>
        </UserObject>
        <mxCell id="DT4qRM4iOKq09jAWjtS9-8" style="edgeStyle=orthogonalEdgeStyle;rounded=1;orthogonalLoop=1;jettySize=auto;html=1;entryX=-0.007;entryY=0.039;entryDx=0;entryDy=0;entryPerimeter=0;endArrow=none;endFill=0;labelBackgroundColor=#F1FAEE;strokeColor=#457B9D;fontColor=#1D3557;" edge="1" parent="1" source="QppL3apP4pxPCaE8zfrQ-16" target="sQpOkhp2Sbl153yCbMzi-10">
          <mxGeometry relative="1" as="geometry" />
        </mxCell>
        <mxCell id="QppL3apP4pxPCaE8zfrQ-16" value="&lt;font face=&quot;Lucida Console&quot;&gt;BookRequestDTO&lt;/font&gt;" style="html=1;overflow=block;blockSpacing=1;swimlane;childLayout=stackLayout;horizontal=1;horizontalStack=0;resizeParent=1;resizeParentMax=0;resizeLast=0;collapsible=0;fontStyle=0;marginBottom=0;swimlaneFillColor=#ffffff;startSize=25;whiteSpace=wrap;fontSize=16.7;fontColor=#1D3557;align=center;spacing=0;strokeColor=#457B9D;strokeOpacity=100;rounded=1;absoluteArcSize=1;arcSize=9;strokeWidth=0.8;fillColor=#A8DADC;" parent="1" vertex="1">
          <mxGeometry x="65" y="-1240" width="310" height="216.25" as="geometry" />
        </mxCell>
        <mxCell id="QppL3apP4pxPCaE8zfrQ-17" value="&lt;font style=&quot;font-size: 14px;&quot; face=&quot;Lucida Console&quot;&gt;- numfoundexact: boolean&lt;br&gt;- start: int&lt;br&gt;- numfound: int&lt;/font&gt;" style="part=1;html=1;resizeHeight=0;strokeColor=none;fillColor=none;align=left;verticalAlign=middle;spacingLeft=4;spacingRight=4;overflow=hidden;rotatable=0;points=[[0,0.5],[1,0.5]];portConstraint=eastwest;swimlaneFillColor=#ffffff;strokeOpacity=100;whiteSpace=wrap;fontSize=16.7;fontColor=#1D3557;rounded=1;" parent="QppL3apP4pxPCaE8zfrQ-16" vertex="1">
          <mxGeometry y="25" width="310" height="79" as="geometry" />
        </mxCell>
        <mxCell id="QppL3apP4pxPCaE8zfrQ-18" value="" style="line;strokeWidth=1;fillColor=none;align=left;verticalAlign=middle;spacingTop=-1;spacingLeft=3;spacingRight=3;rotatable=0;labelPosition=right;points=[];portConstraint=eastwest;rounded=1;labelBackgroundColor=#F1FAEE;strokeColor=#457B9D;fontColor=#1D3557;" parent="QppL3apP4pxPCaE8zfrQ-16" vertex="1">
          <mxGeometry y="104" width="310" height="8" as="geometry" />
        </mxCell>
        <mxCell id="QppL3apP4pxPCaE8zfrQ-19" value="&lt;span style=&quot;color: rgb(58, 65, 74);&quot;&gt;&lt;font style=&quot;font-size: 14px;&quot; face=&quot;Lucida Console&quot;&gt;+ getDocs(): ArrayList&amp;lt;DocumentDTO&amp;gt;&lt;br&gt;+ getNumFound(): int&lt;/font&gt;&lt;br&gt;&lt;/span&gt;" style="part=1;html=1;resizeHeight=0;strokeColor=none;fillColor=none;align=left;verticalAlign=middle;spacingLeft=4;spacingRight=4;overflow=hidden;rotatable=0;points=[[0,0.5],[1,0.5]];portConstraint=eastwest;swimlaneFillColor=#ffffff;strokeOpacity=100;whiteSpace=wrap;fontSize=13;rounded=1;fontColor=#1D3557;" parent="QppL3apP4pxPCaE8zfrQ-16" vertex="1">
          <mxGeometry y="112" width="310" height="104.25" as="geometry" />
        </mxCell>
        <UserObject label="" lucidchartObjectId="3J_C~.xnrt3a" id="QppL3apP4pxPCaE8zfrQ-21">
          <mxCell style="html=1;overflow=block;blockSpacing=1;whiteSpace=wrap;shape=image;fontSize=13;spacing=0;strokeColor=none;strokeOpacity=100;strokeWidth=0;image=https://images.lucid.app/images/462a75c5-ce3d-442a-9572-1a2fd26a31dd/content;imageAspect=0;rounded=1;fillColor=#A8DADC;fontColor=#1D3557;" parent="1" vertex="1">
            <mxGeometry x="453" y="-1150" width="286" height="162" as="geometry" />
          </mxCell>
        </UserObject>
        <UserObject label="&lt;font style=&quot;font-size: 14px;&quot; face=&quot;Lucida Console&quot;&gt;extends&lt;/font&gt;" lucidchartObjectId="cl.CAbDZh1-A" id="QppL3apP4pxPCaE8zfrQ-23">
          <mxCell style="html=1;overflow=block;blockSpacing=1;whiteSpace=wrap;fontSize=16.7;fontColor=#1D3557;spacing=3.8;strokeOpacity=0;fillOpacity=0;rounded=1;absoluteArcSize=1;arcSize=9;fillColor=#A8DADC;strokeWidth=0.8;strokeColor=#457B9D;" parent="1" vertex="1">
            <mxGeometry x="190" y="-1850" width="110" height="30" as="geometry" />
          </mxCell>
        </UserObject>
        <mxCell id="sQpOkhp2Sbl153yCbMzi-2" value="&lt;h1 style=&quot;margin: 0px; font-weight: normal; line-height: 1.3; text-rendering: optimizelegibility; overflow-wrap: break-word; hyphens: auto; color: rgb(45, 59, 69); text-align: start; background-color: rgb(255, 255, 255);&quot; class=&quot;title&quot;&gt;&lt;font style=&quot;font-size: 24px;&quot; face=&quot;Lucida Console&quot;&gt;Assessment - Designing Packages&lt;/font&gt;&lt;/h1&gt;" style="text;html=1;resizable=0;autosize=1;align=center;verticalAlign=middle;points=[];fillColor=none;strokeColor=none;rounded=1;fontColor=#1D3557;" parent="1" vertex="1">
          <mxGeometry x="25" y="-2175" width="460" height="50" as="geometry" />
        </mxCell>
        <mxCell id="DT4qRM4iOKq09jAWjtS9-9" style="edgeStyle=orthogonalEdgeStyle;rounded=1;orthogonalLoop=1;jettySize=auto;html=1;entryX=0;entryY=0.5;entryDx=0;entryDy=0;endArrow=none;endFill=0;labelBackgroundColor=#F1FAEE;strokeColor=#457B9D;fontColor=#1D3557;" edge="1" parent="1" source="sQpOkhp2Sbl153yCbMzi-3" target="sQpOkhp2Sbl153yCbMzi-12">
          <mxGeometry relative="1" as="geometry" />
        </mxCell>
        <mxCell id="DT4qRM4iOKq09jAWjtS9-11" style="edgeStyle=orthogonalEdgeStyle;rounded=1;orthogonalLoop=1;jettySize=auto;html=1;entryX=0.47;entryY=0.004;entryDx=0;entryDy=0;entryPerimeter=0;endArrow=none;endFill=0;labelBackgroundColor=#F1FAEE;strokeColor=#457B9D;fontColor=#1D3557;" edge="1" parent="1" source="sQpOkhp2Sbl153yCbMzi-3" target="sQpOkhp2Sbl153yCbMzi-7">
          <mxGeometry relative="1" as="geometry" />
        </mxCell>
        <mxCell id="sQpOkhp2Sbl153yCbMzi-3" value="&lt;font face=&quot;Lucida Console&quot;&gt;Application&lt;/font&gt;" style="html=1;overflow=block;blockSpacing=1;swimlane;childLayout=stackLayout;horizontal=1;horizontalStack=0;resizeParent=1;resizeParentMax=0;resizeLast=0;collapsible=0;fontStyle=0;marginBottom=0;swimlaneFillColor=#ffffff;startSize=25;whiteSpace=wrap;fontSize=16.7;fontColor=#1D3557;align=center;spacing=0;strokeColor=#457B9D;strokeOpacity=100;rounded=1;absoluteArcSize=1;arcSize=9;strokeWidth=0.8;fillColor=#A8DADC;" parent="1" vertex="1">
          <mxGeometry x="460" y="-1815" width="410" height="227.25" as="geometry" />
        </mxCell>
        <mxCell id="sQpOkhp2Sbl153yCbMzi-4" value="&lt;font style=&quot;font-size: 14px;&quot; face=&quot;Lucida Console&quot;&gt;+ BOOK_[1-5]: String&lt;/font&gt;" style="part=1;html=1;resizeHeight=0;strokeColor=none;fillColor=none;align=left;verticalAlign=middle;spacingLeft=4;spacingRight=4;overflow=hidden;rotatable=0;points=[[0,0.5],[1,0.5]];portConstraint=eastwest;swimlaneFillColor=#ffffff;strokeOpacity=100;whiteSpace=wrap;fontSize=16.7;fontColor=#1D3557;rounded=1;" parent="sQpOkhp2Sbl153yCbMzi-3" vertex="1">
          <mxGeometry y="25" width="410" height="92" as="geometry" />
        </mxCell>
        <mxCell id="sQpOkhp2Sbl153yCbMzi-5" value="" style="line;strokeWidth=1;fillColor=none;align=left;verticalAlign=middle;spacingTop=-1;spacingLeft=3;spacingRight=3;rotatable=0;labelPosition=right;points=[];portConstraint=eastwest;rounded=1;labelBackgroundColor=#F1FAEE;strokeColor=#457B9D;fontColor=#1D3557;" parent="sQpOkhp2Sbl153yCbMzi-3" vertex="1">
          <mxGeometry y="117" width="410" height="8" as="geometry" />
        </mxCell>
        <mxCell id="sQpOkhp2Sbl153yCbMzi-6" value="&lt;font style=&quot;font-size: 14px;&quot; face=&quot;Lucida Console&quot;&gt;+ convertResponseToLibraryBook(String):LibraryBook&lt;br&gt;+ returnBookList(String x5):ArrayList&amp;lt;String&amp;gt;&lt;/font&gt;" style="part=1;html=1;resizeHeight=0;strokeColor=none;fillColor=none;align=left;verticalAlign=middle;spacingLeft=4;spacingRight=4;overflow=hidden;rotatable=0;points=[[0,0.5],[1,0.5]];portConstraint=eastwest;swimlaneFillColor=#ffffff;strokeOpacity=100;whiteSpace=wrap;fontSize=16.7;fontColor=#1D3557;rounded=1;" parent="sQpOkhp2Sbl153yCbMzi-3" vertex="1">
          <mxGeometry y="125" width="410" height="102.25" as="geometry" />
        </mxCell>
        <mxCell id="DT4qRM4iOKq09jAWjtS9-5" style="edgeStyle=orthogonalEdgeStyle;rounded=1;orthogonalLoop=1;jettySize=auto;html=1;endArrow=none;endFill=0;labelBackgroundColor=#F1FAEE;strokeColor=#457B9D;fontColor=#1D3557;" edge="1" parent="1" source="sQpOkhp2Sbl153yCbMzi-7" target="DT4qRM4iOKq09jAWjtS9-1">
          <mxGeometry relative="1" as="geometry" />
        </mxCell>
        <mxCell id="sQpOkhp2Sbl153yCbMzi-7" value="&lt;font face=&quot;Lucida Console&quot;&gt;BookRequestService&lt;/font&gt;" style="html=1;overflow=block;blockSpacing=1;swimlane;childLayout=stackLayout;horizontal=1;horizontalStack=0;resizeParent=1;resizeParentMax=0;resizeLast=0;collapsible=0;fontStyle=0;marginBottom=0;swimlaneFillColor=#ffffff;startSize=25;whiteSpace=wrap;fontSize=16.7;fontColor=#1D3557;align=center;spacing=0;strokeColor=#457B9D;strokeOpacity=100;rounded=1;absoluteArcSize=1;arcSize=9;strokeWidth=0.8;fillColor=#A8DADC;" parent="1" vertex="1">
          <mxGeometry x="446" y="-1490" width="300" height="227.25" as="geometry" />
        </mxCell>
        <mxCell id="sQpOkhp2Sbl153yCbMzi-8" value="&lt;span style=&quot;background-color: initial;&quot;&gt;&lt;font style=&quot;font-size: 14px;&quot; face=&quot;Lucida Console&quot;&gt;+ DEBUG:boolean = false&lt;/font&gt;&lt;/span&gt;&lt;div&gt;&lt;font style=&quot;font-size: 14px;&quot; face=&quot;Lucida Console&quot;&gt;+ GET_URL:String = &quot;search.json&quot;&lt;/font&gt;&lt;/div&gt;" style="part=1;html=1;resizeHeight=0;strokeColor=none;fillColor=none;align=left;verticalAlign=middle;spacingLeft=4;spacingRight=4;overflow=hidden;rotatable=0;points=[[0,0.5],[1,0.5]];portConstraint=eastwest;swimlaneFillColor=#ffffff;strokeOpacity=100;whiteSpace=wrap;fontSize=16.7;fontColor=#1D3557;rounded=1;" parent="sQpOkhp2Sbl153yCbMzi-7" vertex="1">
          <mxGeometry y="25" width="300" height="92" as="geometry" />
        </mxCell>
        <mxCell id="sQpOkhp2Sbl153yCbMzi-9" value="" style="line;strokeWidth=1;fillColor=none;align=left;verticalAlign=middle;spacingTop=-1;spacingLeft=3;spacingRight=3;rotatable=0;labelPosition=right;points=[];portConstraint=eastwest;rounded=1;labelBackgroundColor=#F1FAEE;strokeColor=#457B9D;fontColor=#1D3557;" parent="sQpOkhp2Sbl153yCbMzi-7" vertex="1">
          <mxGeometry y="117" width="300" height="8" as="geometry" />
        </mxCell>
        <mxCell id="sQpOkhp2Sbl153yCbMzi-10" value="&lt;font style=&quot;font-size: 14px;&quot; face=&quot;Lucida Console&quot;&gt;+sendGetRequest(String): String&lt;/font&gt;" style="part=1;html=1;resizeHeight=0;strokeColor=none;fillColor=none;align=left;verticalAlign=middle;spacingLeft=4;spacingRight=4;overflow=hidden;rotatable=0;points=[[0,0.5],[1,0.5]];portConstraint=eastwest;swimlaneFillColor=#ffffff;strokeOpacity=100;whiteSpace=wrap;fontSize=16.7;fontColor=#1D3557;rounded=1;" parent="sQpOkhp2Sbl153yCbMzi-7" vertex="1">
          <mxGeometry y="125" width="300" height="102.25" as="geometry" />
        </mxCell>
        <mxCell id="sQpOkhp2Sbl153yCbMzi-11" value="&lt;font face=&quot;Lucida Console&quot;&gt;Logger&lt;/font&gt;" style="html=1;overflow=block;blockSpacing=1;swimlane;childLayout=stackLayout;horizontal=1;horizontalStack=0;resizeParent=1;resizeParentMax=0;resizeLast=0;collapsible=0;fontStyle=0;marginBottom=0;swimlaneFillColor=#ffffff;startSize=25;whiteSpace=wrap;fontSize=16.7;fontColor=#1D3557;align=center;spacing=0;strokeColor=#457B9D;strokeOpacity=100;rounded=1;absoluteArcSize=1;arcSize=9;strokeWidth=0.8;fillColor=#A8DADC;" parent="1" vertex="1">
          <mxGeometry x="760" y="-2120" width="300" height="227.25" as="geometry" />
        </mxCell>
        <mxCell id="sQpOkhp2Sbl153yCbMzi-12" value="&lt;font style=&quot;font-size: 14px;&quot; face=&quot;Lucida Console&quot;&gt;- logFile: String = &quot;book_search_log.txt&quot;&lt;/font&gt;" style="part=1;html=1;resizeHeight=0;strokeColor=none;fillColor=none;align=left;verticalAlign=middle;spacingLeft=4;spacingRight=4;overflow=hidden;rotatable=0;points=[[0,0.5],[1,0.5]];portConstraint=eastwest;swimlaneFillColor=#ffffff;strokeOpacity=100;whiteSpace=wrap;fontSize=16.7;fontColor=#1D3557;rounded=1;" parent="sQpOkhp2Sbl153yCbMzi-11" vertex="1">
          <mxGeometry y="25" width="300" height="92" as="geometry" />
        </mxCell>
        <mxCell id="sQpOkhp2Sbl153yCbMzi-13" value="" style="line;strokeWidth=1;fillColor=none;align=left;verticalAlign=middle;spacingTop=-1;spacingLeft=3;spacingRight=3;rotatable=0;labelPosition=right;points=[];portConstraint=eastwest;rounded=1;labelBackgroundColor=#F1FAEE;strokeColor=#457B9D;fontColor=#1D3557;" parent="sQpOkhp2Sbl153yCbMzi-11" vertex="1">
          <mxGeometry y="117" width="300" height="8" as="geometry" />
        </mxCell>
        <mxCell id="sQpOkhp2Sbl153yCbMzi-14" value="&lt;font style=&quot;font-size: 14px;&quot; face=&quot;Lucida Console&quot;&gt;+ getInstance(): Logger&lt;br&gt;+ logMessage (String): void&lt;/font&gt;" style="part=1;html=1;resizeHeight=0;strokeColor=none;fillColor=none;align=left;verticalAlign=middle;spacingLeft=4;spacingRight=4;overflow=hidden;rotatable=0;points=[[0,0.5],[1,0.5]];portConstraint=eastwest;swimlaneFillColor=#ffffff;strokeOpacity=100;whiteSpace=wrap;fontSize=16.7;fontColor=#1D3557;rounded=1;" parent="sQpOkhp2Sbl153yCbMzi-11" vertex="1">
          <mxGeometry y="125" width="300" height="102.25" as="geometry" />
        </mxCell>
        <mxCell id="DT4qRM4iOKq09jAWjtS9-1" value="&lt;font face=&quot;Lucida Console&quot;&gt;DocumentDTO&lt;/font&gt;" style="html=1;overflow=block;blockSpacing=1;swimlane;childLayout=stackLayout;horizontal=1;horizontalStack=0;resizeParent=1;resizeParentMax=0;resizeLast=0;collapsible=0;fontStyle=0;marginBottom=0;swimlaneFillColor=#ffffff;startSize=25;whiteSpace=wrap;fontSize=16.7;fontColor=#1D3557;align=center;spacing=0;strokeColor=#457B9D;strokeOpacity=100;rounded=1;absoluteArcSize=1;arcSize=9;strokeWidth=0.8;fillColor=#A8DADC;" vertex="1" parent="1">
          <mxGeometry x="780" y="-1240" width="270" height="222.25" as="geometry" />
        </mxCell>
        <mxCell id="DT4qRM4iOKq09jAWjtS9-2" value="&lt;font style=&quot;font-size: 14px;&quot; face=&quot;Lucida Console&quot;&gt;- subject: List&amp;lt;String&amp;gt;&lt;br&gt;- person: List&amp;lt;String&amp;gt;&lt;br&gt;- authorName: List&amp;lt;String&amp;gt;&lt;br&gt;- isbn: List&amp;lt;String&amp;gt;&lt;/font&gt;" style="part=1;html=1;resizeHeight=0;strokeColor=none;fillColor=none;align=left;verticalAlign=middle;spacingLeft=4;spacingRight=4;overflow=hidden;rotatable=0;points=[[0,0.5],[1,0.5]];portConstraint=eastwest;swimlaneFillColor=#ffffff;strokeOpacity=100;whiteSpace=wrap;fontSize=16.7;fontColor=#1D3557;rounded=1;" vertex="1" parent="DT4qRM4iOKq09jAWjtS9-1">
          <mxGeometry y="25" width="270" height="85" as="geometry" />
        </mxCell>
        <mxCell id="DT4qRM4iOKq09jAWjtS9-3" value="" style="line;strokeWidth=1;fillColor=none;align=left;verticalAlign=middle;spacingTop=-1;spacingLeft=3;spacingRight=3;rotatable=0;labelPosition=right;points=[];portConstraint=eastwest;rounded=1;labelBackgroundColor=#F1FAEE;strokeColor=#457B9D;fontColor=#1D3557;" vertex="1" parent="DT4qRM4iOKq09jAWjtS9-1">
          <mxGeometry y="110" width="270" height="8" as="geometry" />
        </mxCell>
        <mxCell id="DT4qRM4iOKq09jAWjtS9-4" value="&lt;font style=&quot;font-size: 14px;&quot; face=&quot;Lucida Console&quot;&gt;&lt;span style=&quot;color: rgb(58, 65, 74);&quot;&gt;+getSubject(): List&amp;lt;String&amp;gt;&lt;/span&gt;&lt;br style=&quot;color: rgb(58, 65, 74);&quot;&gt;&lt;span style=&quot;color: rgb(58, 65, 74);&quot;&gt;+getIsbn(): List&amp;lt;String&amp;gt;&lt;/span&gt;&lt;/font&gt;" style="part=1;html=1;resizeHeight=0;strokeColor=none;fillColor=none;align=left;verticalAlign=middle;spacingLeft=4;spacingRight=4;overflow=hidden;rotatable=0;points=[[0,0.5],[1,0.5]];portConstraint=eastwest;swimlaneFillColor=#ffffff;strokeOpacity=100;whiteSpace=wrap;fontSize=13;rounded=1;fontColor=#1D3557;" vertex="1" parent="DT4qRM4iOKq09jAWjtS9-1">
          <mxGeometry y="118" width="270" height="104.25" as="geometry" />
        </mxCell>
        <mxCell id="DT4qRM4iOKq09jAWjtS9-10" style="edgeStyle=orthogonalEdgeStyle;rounded=1;orthogonalLoop=1;jettySize=auto;html=1;entryX=1;entryY=0.5;entryDx=0;entryDy=0;endArrow=none;endFill=0;labelBackgroundColor=#F1FAEE;strokeColor=#457B9D;fontColor=#1D3557;" edge="1" parent="1" source="sQpOkhp2Sbl153yCbMzi-4" target="QppL3apP4pxPCaE8zfrQ-8">
          <mxGeometry relative="1" as="geometry" />
        </mxCell>
        <UserObject label="&lt;font style=&quot;font-size: 14px;&quot; face=&quot;Lucida Console&quot;&gt;0..*&lt;/font&gt;" lucidchartObjectId="cl.CAbDZh1-A" id="DT4qRM4iOKq09jAWjtS9-12">
          <mxCell style="html=1;overflow=block;blockSpacing=1;whiteSpace=wrap;fontSize=16.7;fontColor=#1D3557;spacing=3.8;strokeOpacity=0;fillOpacity=0;rounded=1;absoluteArcSize=1;arcSize=9;fillColor=#A8DADC;strokeWidth=0.8;strokeColor=#457B9D;" vertex="1" parent="1">
            <mxGeometry x="485" y="-1530" width="110" height="30" as="geometry" />
          </mxCell>
        </UserObject>
        <UserObject label="&lt;font style=&quot;font-size: 14px;&quot; face=&quot;Lucida Console&quot;&gt;0..*&lt;/font&gt;" lucidchartObjectId="cl.CAbDZh1-A" id="DT4qRM4iOKq09jAWjtS9-13">
          <mxCell style="html=1;overflow=block;blockSpacing=1;whiteSpace=wrap;fontSize=16.7;fontColor=#1D3557;spacing=3.8;strokeOpacity=0;fillOpacity=0;rounded=1;absoluteArcSize=1;arcSize=9;fillColor=#A8DADC;strokeWidth=0.8;strokeColor=#457B9D;" vertex="1" parent="1">
            <mxGeometry x="670" y="-2090" width="110" height="30" as="geometry" />
          </mxCell>
        </UserObject>
      </root>
    </mxGraphModel>
  </diagram>
</mxfile>
